<?xml version="1.0" encoding="UTF-8"?>
<svg width="27px" height="27px" viewBox="0 0 27 27" version="1.1" xmlns="http://www.w3.org/2000/svg" xmlns:xlink="http://www.w3.org/1999/xlink">
    <!-- Generator: Sketch 64 (93537) - https://sketch.com -->
    <title>browser</title>
    <desc>Created with Sketch.</desc>
    <g id="Page-1" stroke="none" stroke-width="1" fill="none" fill-rule="evenodd" opacity="0.900000036">
        <g id="landing" transform="translate(-819.000000, -2056.000000)" fill="#FFFFFF" fill-rule="nonzero">
            <g id="main" transform="translate(120.000000, 180.000000)">
                <g id="Group-12" transform="translate(198.000000, 1618.000000)">
                    <g id="Group" transform="translate(244.000000, 246.000000)">
                        <g id="browser" transform="translate(257.000000, 12.000000)">
                            <circle id="Oval" cx="13.1999999" cy="13.1999999" r="4.38281248"></circle>
                            <path d="M7.4072109,11.9321812 C7.98945464,9.26975151 10.3654031,7.27031246 13.1999999,7.27031246 L25.0006452,7.27031246 C24.3745217,6.02729528 23.5465827,4.87894685 22.5338436,3.86615623 C20.0406421,1.37305781 16.7258437,0 13.1999999,0 C9.6741562,0 6.35935778,1.37305781 3.86615623,3.86615623 C3.62639061,4.10592185 3.39724686,4.35342185 3.17846717,4.60783123 L7.4072109,11.9321812 Z" id="Path"></path>
                            <path d="M14.9984999,18.8505796 C14.431003,19.0316155 13.8267421,19.1296874 13.1999999,19.1296874 C10.9973531,19.1296874 9.0714937,17.922403 8.04900933,16.1348343 C8.04168746,16.1235421 8.03441714,16.1123015 8.02761089,16.1005452 L2.16619218,5.94824997 C0.756989058,8.08293746 0,10.5832031 0,13.1999999 C0,16.7258437 1.37305781,20.0406421 3.86615623,22.5338436 C5.77618591,24.4438217 8.16868589,25.6954499 10.7686218,26.1769405 L14.9984999,18.8505796 Z" id="Path"></path>
                            <path d="M17.1898546,8.81718745 C18.3809999,9.90247495 19.1296874,11.4654374 19.1296874,13.1999999 C19.1296874,14.2909593 18.833203,15.3138046 18.3170624,16.1928937 C18.311803,16.2029999 18.3072655,16.2132608 18.3015421,16.2232124 L12.4388859,26.3777249 C12.6913874,26.3919561 12.9450749,26.3999999 13.1999999,26.3999999 C16.7258437,26.3999999 20.0406421,25.0269421 22.5338436,22.5338436 C25.0269421,20.0406421 26.3999999,16.7258437 26.3999999,13.1999999 C26.3999999,11.6837531 26.1453842,10.2067968 25.6577061,8.81718745 L17.1898546,8.81718745 Z" id="Path"></path>
                        </g>
                    </g>
                </g>
            </g>
        </g>
    </g>
</svg>