<?xml version="1.0" encoding="UTF-8"?>
<svg width="32px" height="32px" viewBox="0 0 32 32" version="1.1" xmlns="http://www.w3.org/2000/svg" xmlns:xlink="http://www.w3.org/1999/xlink">
    <!-- Generator: Sketch 64 (93537) - https://sketch.com -->
    <title>favicon</title>
    <desc>Created with Sketch.</desc>
    <g id="Page-1" stroke="none" stroke-width="1" fill="none" fill-rule="evenodd">
        <g id="landing" transform="translate(-120.000000, -2279.000000)" fill-rule="nonzero">
            <g id="favicon" transform="translate(120.000000, 2279.000000)">
                <rect id="Rectangle" fill="#D53A2E" x="0" y="0" width="31.6609699" height="31.6609699" rx="1.5999999"></rect>
                <path d="M13.6696238,22.5089708 L13.6696238,16.545825 L15.1656046,16.8159327 L18.4692289,22.5089708 L21.7520757,22.5089708 L18.4276739,16.9613752 L17.4095758,16.3172724 C18.337638,16.0263872 19.0787026,15.5069494 19.6327696,14.758959 C20.1868365,14.0109686 20.46387,13.0413514 20.46387,11.8501074 C20.46387,11.0467103 20.3080387,10.378367 19.996376,9.84507754 C19.6847133,9.31178808 19.2691631,8.89277493 18.7497253,8.58803809 C18.2302875,8.28330126 17.6415914,8.0686003 16.9836369,7.94393524 C16.3256823,7.81927017 15.657339,7.75693763 14.978607,7.75693763 C14.6877218,7.75693763 14.3691333,7.76386347 14.0228415,7.77771514 C13.6765496,7.79156682 13.319869,7.81234433 12.9527996,7.84004768 C12.5857302,7.86775103 12.2186609,7.90584313 11.8515915,7.95432399 C11.4845221,8.00280485 11.1416932,8.05474863 10.8231047,8.11015533 L10.8231047,8.11015533 L10.8231047,22.5089708 L13.6696238,22.5089708 Z M14.8747194,14.6135164 L13.6696238,14.6135164 L13.6696238,10.3956816 C13.8219922,10.3541266 14.0401561,10.3264232 14.3241154,10.3125715 C14.6080747,10.2987199 14.8954969,10.291794 15.1863821,10.291794 C15.9343725,10.291794 16.5022912,10.4684029 16.890138,10.8216206 C17.2779849,11.1748383 17.4719084,11.6631098 17.4719084,12.2864351 C17.4719084,13.1175356 17.2364299,13.7131576 16.765473,14.0733011 C16.2945161,14.4334447 15.6642649,14.6135164 14.8747194,14.6135164 L14.8747194,14.6135164 Z" id="R" fill="#FFFFFF"></path>
            </g>
        </g>
    </g>
</svg>