<?xml version="1.0" encoding="UTF-8"?>
<svg width="123px" height="31px" viewBox="0 0 123 31" version="1.1" xmlns="http://www.w3.org/2000/svg" xmlns:xlink="http://www.w3.org/1999/xlink">
    <!-- Generator: Sketch 64 (93537) - https://sketch.com -->
    <title>todoist-seeklogo.com</title>
    <desc>Created with Sketch.</desc>
    <g id="Page-1" stroke="none" stroke-width="1" fill="none" fill-rule="evenodd">
        <g id="landing" transform="translate(-120.000000, -709.000000)">
            <g id="todoist-seeklogo.com" transform="translate(120.000000, 709.000000)">
                <path d="M53.6350831,18.375975 C53.6350831,18.866754 53.7053384,19.357533 53.9154321,19.848312 C54.0559428,20.339091 54.3362919,20.6896954 54.6868964,21.110219 C55.0375008,21.4608234 55.3877691,21.7411725 55.878548,21.9516024 C56.369327,22.1620323 56.860106,22.3022069 57.4211403,22.3022069 C57.9821746,22.3022069 58.5428728,22.1620323 58.9637326,21.9516024 C59.4545116,21.7411725 59.8047799,21.4608234 60.1553843,21.110219 C60.5059887,20.7596146 60.7164186,20.339091 60.9268485,19.848312 C61.0670231,19.357533 61.2071976,18.9366732 61.2071976,18.375975 C61.2071976,17.8851961 61.1369423,17.3944171 60.9268485,16.9036381 C60.7863378,16.4128591 60.5059887,16.0622547 60.1553843,15.7116503 C59.8047799,15.3610458 59.4545116,15.0806967 58.9637326,14.8702669 C58.4729536,14.659837 57.9821746,14.5196624 57.4211403,14.5196624 C56.860106,14.5196624 56.2994078,14.659837 55.878548,14.8702669 C55.3877691,15.0806967 55.0375008,15.3610458 54.6868964,15.7116503 C54.3362919,16.0622547 54.125862,16.4827783 53.9154321,16.9036381 C53.7053384,17.3944171 53.6350831,17.8851961 53.6350831,18.375975 M50.4100601,18.375975 C50.4100601,17.3944171 50.62049,16.4128591 50.9707583,15.6413949 C51.3213627,14.8003477 51.8121417,14.0991388 52.4430952,13.5381045 C53.0743849,12.9774063 53.7752576,12.4866273 54.6868964,12.2059421 C55.5282798,11.8556738 56.4395824,11.7151631 57.4211403,11.7151631 C58.4026983,11.7151631 59.3140009,11.8556738 60.1553843,12.2059421 C60.9967677,12.5565465 61.7678958,12.9774063 62.3991854,13.5381045 C63.030139,14.0991388 63.5209179,14.8003477 63.8715224,15.6413949 C64.2217907,16.4827783 64.4322205,17.3944171 64.4322205,18.375975 C64.4322205,19.357533 64.2217907,20.339091 63.8715224,21.110219 C63.5209179,21.9516024 63.030139,22.6528113 62.3991854,23.2135095 C61.7678958,23.7745438 61.0670231,24.2653228 60.1553843,24.5456719 C59.3140009,24.8962763 58.4026983,25.0364508 57.4211403,25.0364508 C56.4395824,25.0364508 55.5282798,24.8962763 54.6868964,24.5456719 C53.8455129,24.1950674 53.0743849,23.7745438 52.4430952,23.2135095 C51.8121417,22.6528113 51.3213627,21.9516024 50.9707583,21.110219 C50.62049,20.339091 50.4100601,19.4274522 50.4100601,18.375975" id="Fill-1" fill="#D34035"></path>
                <path d="M68.9894059,18.375975 C68.9894059,18.866754 69.0596612,19.357533 69.2700911,19.848312 C69.4102657,20.339091 69.6906148,20.6896954 70.0412192,21.110219 C70.3918236,21.4608234 70.7424281,21.7411725 71.233207,21.9516024 C71.723986,22.1620323 72.214765,22.3022069 72.7754632,22.3022069 C73.3364975,22.3022069 73.8971957,22.1620323 74.3180554,21.9516024 C74.7385791,21.7411725 75.1594388,21.4608234 75.5097071,21.110219 C75.8603116,20.7596146 76.0707415,20.339091 76.2811713,19.848312 C76.4213459,19.357533 76.5615204,18.9366732 76.5615204,18.375975 C76.5615204,17.8851961 76.4912651,17.3944171 76.2811713,16.9036381 C76.1409968,16.4128591 75.8603116,16.0622547 75.5097071,15.7116503 C75.1594388,15.3610458 74.8088344,15.0806967 74.3180554,14.8702669 C73.8272765,14.659837 73.3364975,14.5196624 72.7754632,14.5196624 C72.214765,14.5196624 71.6537307,14.659837 71.233207,14.8702669 C70.7424281,15.0806967 70.3918236,15.3610458 70.0412192,15.7116503 C69.6906148,16.0622547 69.4801849,16.4827783 69.2700911,16.9036381 C69.1295804,17.4643363 68.9894059,17.8851961 68.9894059,18.375975 M76.5615204,22.862905 C76.0707415,23.6343692 75.4397879,24.1950674 74.6686599,24.5456719 C73.8971957,24.8962763 73.0558122,25.1067062 72.1445096,25.1067062 C71.1629517,25.1067062 70.2516491,24.9665316 69.4801849,24.6159272 C68.7090568,24.2653228 68.0781033,23.7745438 67.517069,23.2135095 C66.9563708,22.5825559 66.535511,21.8813471 66.2551619,21.110219 C65.9748128,20.2688356 65.8346383,19.4274522 65.8346383,18.4458942 C65.8346383,17.5345916 65.9748128,16.6229529 66.2551619,15.7819056 C66.535511,14.9405222 66.9563708,14.2393133 67.517069,13.678279 C68.0781033,13.0473255 68.7090568,12.6268019 69.4801849,12.2761974 C70.2516491,11.925593 71.0926963,11.7854185 72.0043351,11.7854185 C72.6352886,11.7854185 73.1260676,11.8556738 73.6168466,11.9958483 C74.1076255,12.1360229 74.45823,12.2761974 74.8088344,12.4866273 C75.1594388,12.6967211 75.4397879,12.9071509 75.720137,13.1175808 C76.0004861,13.3280107 76.1409968,13.5381045 76.3510905,13.7485344 L76.4213459,13.7485344 L76.4213459,6.59727959 C76.4213459,6.24667516 76.701695,5.89607073 77.1225548,5.89607073 L78.94516,5.89607073 C79.3660198,5.89607073 79.6463688,6.24667516 79.6463688,6.59727959 L79.6463688,24.1251482 C79.6463688,24.5456719 79.2957644,24.8260209 78.94516,24.8260209 L77.3326485,24.8260209 C76.9121249,24.8260209 76.6317758,24.4754165 76.6317758,24.1251482 L76.6317758,22.862905 L76.5615204,22.862905" id="Fill-2" fill="#D34035"></path>
                <path d="M84.9750184,18.375975 C84.9750184,18.866754 85.0449376,19.357533 85.2553675,19.848312 C85.395542,20.339091 85.6758911,20.6896954 86.0264955,21.110219 C86.3771,21.4608234 86.7277044,21.7411725 87.2184834,21.9516024 C87.7092624,22.1620323 88.2000413,22.3022069 88.7607395,22.3022069 C89.3217738,22.3022069 89.8828082,22.1620323 90.3033318,21.9516024 C90.7238554,21.7411725 91.1447152,21.4608234 91.4953196,21.110219 C91.8459241,20.7596146 92.0560178,20.339091 92.2664477,19.848312 C92.4066222,19.357533 92.5467968,18.9366732 92.5467968,18.375975 C92.5467968,17.8851961 92.4768776,17.3944171 92.2664477,16.9036381 C92.1262732,16.4128591 91.8459241,16.0622547 91.4953196,15.7116503 C91.1447152,15.3610458 90.7941108,15.0806967 90.3033318,14.8702669 C89.8125528,14.659837 89.3217738,14.5196624 88.7607395,14.5196624 C88.2000413,14.5196624 87.639007,14.659837 87.2184834,14.8702669 C86.7277044,15.0806967 86.3771,15.3610458 86.0264955,15.7116503 C85.6758911,16.0622547 85.4657974,16.4827783 85.2553675,16.9036381 C85.0449376,17.3944171 84.9750184,17.8851961 84.9750184,18.375975 M81.7496593,18.375975 C81.7496593,17.3944171 81.9600892,16.4128591 82.3106936,15.6413949 C82.661298,14.8003477 83.152077,14.0991388 83.7830305,13.5381045 C84.4139841,12.9774063 85.1151929,12.4866273 86.0264955,12.2059421 C86.867879,11.8556738 87.7791816,11.7151631 88.7607395,11.7151631 C89.7422975,11.7151631 90.6539362,11.8556738 91.4953196,12.2059421 C92.336703,12.5565465 93.1078311,12.9774063 93.7387846,13.5381045 C94.3697382,14.0991388 94.8605171,14.8003477 95.2111216,15.6413949 C95.561726,16.4827783 95.7721559,17.3944171 95.7721559,18.375975 C95.7721559,19.357533 95.561726,20.339091 95.2111216,21.110219 C94.8605171,21.9516024 94.3697382,22.6528113 93.7387846,23.2135095 C93.1078311,23.7745438 92.4066222,24.2653228 91.4953196,24.5456719 C90.6539362,24.8962763 89.7422975,25.0364508 88.7607395,25.0364508 C87.7791816,25.0364508 86.867879,24.8962763 86.0264955,24.5456719 C85.1851121,24.1950674 84.4139841,23.7745438 83.7830305,23.2135095 C83.152077,22.6528113 82.661298,21.9516024 82.3106936,21.110219 C81.9600892,20.339091 81.7496593,19.4274522 81.7496593,18.375975" id="Fill-3" fill="#D34035"></path>
                <path d="M97.2444928,7.64875674 C97.2444928,7.15797777 97.4545866,6.66719879 97.805191,6.31659436 C98.1557954,5.96632607 98.6465744,5.75589618 99.2775279,5.75589618 C99.8385622,5.75589618 100.329341,5.96632607 100.749865,6.31659436 C101.170725,6.66719879 101.380818,7.15797777 101.380818,7.71901209 C101.380818,8.28004641 101.170725,8.70057004 100.749865,9.12109367 C100.329341,9.47169811 99.8385622,9.682128 99.2775279,9.682128 C98.7168297,9.682128 98.2260508,9.47169811 97.805191,9.12109367 C97.4545866,8.6303147 97.2444928,8.20979107 97.2444928,7.64875674" id="Fill-4" fill="#D34035"></path>
                <g id="Group-8" transform="translate(102.525745, 7.059150)" fill="#D34035">
                    <path d="M7.96977998,8.51232605 C7.61917554,8.51232605 7.40874565,8.30189616 7.40874565,8.16172162 C7.12839657,7.46051275 6.28701316,7.18016367 5.58580429,7.18016367 C4.53432714,7.18016367 3.69294373,7.67094264 3.69294373,8.51232605 C3.69294373,9.35370946 4.53432714,9.49388401 5.02510612,9.63405855 C5.58580429,9.77423309 6.63761759,10.0545822 7.19831576,10.1950929 C7.75935009,10.3352674 8.32004826,10.5453612 8.88108259,10.8260464 C10.5638494,11.737349 10.8441985,13.0695114 10.8441985,13.9108948 C10.8441985,16.9957432 7.75935009,18.0475565 5.65605964,18.0475565 C4.04354816,18.0475565 0.958363605,17.7668713 0.257490888,14.6820229 C0.187235541,14.4016738 0.467584628,13.9108948 0.958363605,13.9108948 L2.71138577,13.9108948 C3.06199021,13.9108948 3.27208395,14.1912439 3.34233929,14.3314184 C3.55276918,14.962372 4.32389725,15.4531509 5.51588509,15.4531509 C6.84771133,15.4531509 7.61917554,14.962372 7.61917554,14.2614992 C7.61917554,13.8406395 7.33849031,13.4201158 7.05814122,13.2096859 C6.07658327,12.5084771 3.62268838,12.4385579 2.29052599,11.737349 C1.79974702,11.4569999 0.537839975,10.8260464 0.537839975,8.72275594 C0.537839975,5.84800128 3.20216475,4.58609424 5.51588509,4.58609424 C8.95133793,4.58609424 10.213245,6.75964004 10.3534195,7.5307681 C10.4236749,7.95129173 10.213245,8.44207071 9.65221065,8.44207071 L7.96977998,8.44207071 L7.96977998,8.51232605" id="Fill-5"></path>
                    <path d="M11.0546284,6.89981458 L11.0546284,5.56765219 C11.0546284,5.21704776 11.3349775,4.86644332 11.7555011,4.86644332 L13.4382679,4.86644332 L13.4382679,1.64142037 C13.4382679,1.29081594 13.6486978,1.08038605 13.8591277,1.01046685 C13.9993022,0.940211506 14.9106049,0.519687876 15.6817329,0.239002639 C16.2427672,0.0289088987 16.6632909,0.449432529 16.6632909,0.870292309 L16.6632909,4.93669867 L19.4677902,4.93669867 C19.88865,4.93669867 20.1689991,5.2873031 20.1689991,5.63757139 L20.1689991,6.96973378 C20.1689991,7.32033821 19.8183946,7.67094264 19.4677902,7.67094264 L16.6632909,7.67094264 L16.6632909,13.2799413 C16.6632909,13.9108948 16.6632909,14.4016738 16.8737208,14.8221974 C17.0841507,15.1728018 17.4347551,15.3129764 18.0657086,15.3129764 C18.2761385,15.3129764 18.416313,15.3129764 18.5564876,15.2430572 C18.9770112,15.1028826 19.2576965,15.3129764 19.397871,15.5234063 C19.6079647,15.9439299 19.8183946,16.3647897 20.0288245,16.7153941 C20.2392544,17.0659986 20.0987437,17.4865222 19.7484754,17.6969521 C19.1874411,17.9773012 18.4862322,18.1877311 17.4347551,18.1877311 C16.5933717,18.1877311 16.1025927,18.1174757 15.5415584,17.907382 C14.9808602,17.6969521 14.4900812,17.3463476 14.209396,16.925824 C13.9290469,16.5752196 13.718617,16.0141853 13.6486978,15.4531509 C13.5085233,14.8924528 13.5085233,14.1912439 13.5085233,13.4201158 L13.5085233,7.74119799 L11.8257564,7.74119799 C11.2647221,7.6006873 11.0546284,7.25041901 11.0546284,6.89981458" id="Fill-7"></path>
                </g>
                <path d="M40.3840507,13.9589642 L40.3840507,12.6268019 C40.3840507,12.2761974 40.6643998,11.925593 41.0852595,11.925593 L43.0483754,11.925593 L43.0483754,8.70057004 C43.0483754,8.34996561 43.2588053,8.13953572 43.4688991,8.06961652 C43.6090736,7.99936118 44.5207124,7.57883755 45.2918404,7.29815231 C45.8528748,7.08805857 46.2733984,7.5085822 46.2733984,7.92944198 L46.2733984,11.9958483 L49.0778977,11.9958483 C49.4984213,11.9958483 49.7791066,12.3464528 49.7791066,12.6967211 L49.7791066,14.0288834 C49.7791066,14.3794879 49.4285021,14.7300923 49.0778977,14.7300923 L46.2733984,14.7300923 L46.2733984,20.339091 C46.2733984,20.9700445 46.2733984,21.4608234 46.4838283,21.8813471 C46.6942582,22.2319515 47.0445265,22.3721261 47.6758161,22.3721261 C47.8859099,22.3721261 48.0260844,22.3721261 48.1665951,22.3022069 C48.5871187,22.1620323 48.8674678,22.3721261 49.0076424,22.5825559 C49.2180723,23.0030796 49.4285021,23.4239394 49.638932,23.7745438 C49.8490258,24.1251482 49.7088512,24.5456719 49.3582468,24.7561017 C48.7975486,25.0364508 48.0963398,25.2468807 47.0445265,25.2468807 C46.2034792,25.2468807 45.7127002,25.1766254 45.1516659,24.9665316 C44.5906316,24.7561017 44.0998526,24.4054973 43.8195035,23.9849737 C43.5391544,23.6343692 43.3287245,23.0733349 43.2588053,22.5123006 C43.1182946,21.9516024 43.1182946,21.2503936 43.1182946,20.4792655 L43.1182946,14.8003477 L41.1551787,14.8003477 C40.5944806,14.659837 40.3840507,14.3095687 40.3840507,13.9589642" id="Fill-9" fill="#D34035"></path>
                <path d="M98.3662253,24.8260209 L100.189167,24.8260209 C100.539435,24.8260209 100.890039,24.5456719 100.890039,24.1251482 L100.890039,12.6268019 C100.890039,12.2761974 100.60969,11.925593 100.189167,11.925593 L98.3662253,11.925593 C98.0156209,11.925593 97.6650164,12.2059421 97.6650164,12.6268019 L97.6650164,24.1251482 C97.7352718,24.4754165 98.0156209,24.8260209 98.3662253,24.8260209" id="Fill-10" fill="#D34035"></path>
                <path d="M26.9928437,0.0769783464 L3.85597647,0.0769783464 C1.75268602,0.0769783464 0,1.82966436 0,3.93295482 L0,27.0698221 C0,29.1731125 1.75268602,30.9257986 3.85597647,30.9257986 L26.9928437,30.9257986 C29.0961342,30.9257986 30.8488202,29.1731125 30.8488202,27.0698221 L30.8488202,3.93295482 C30.8488202,1.82966436 29.1663895,0.0769783464 26.9928437,0.0769783464" id="Fill-11" fill="#D34035"></path>
                <path d="M6.59055659,14.5196624 C7.15125477,14.2393133 18.7897757,7.5085822 19.0701248,7.36840766 C19.35081,7.22823311 19.35081,6.73745414 19.0701248,6.59727959 C18.7897757,6.45710505 18.2290775,6.10650062 18.0186476,5.96632607 C17.8082177,5.82581538 17.3876941,5.75589618 17.0370897,5.96632607 C16.8969151,6.03624527 6.94116103,11.7854185 6.59055659,11.9958483 C6.16969681,12.2059421 5.67891784,12.2059421 5.3283134,11.9958483 C5.04796431,11.7854185 0.0702553467,8.91099993 0.0702553467,8.91099993 L0.0702553467,11.5050694 C1.33216239,12.2761974 4.55718534,14.0991388 5.3283134,14.5196624 C5.74917318,14.8003477 6.16969681,14.8003477 6.59055659,14.5196624" id="Fill-12" fill="#FFFFFE"></path>
                <path d="M6.59055659,19.7081374 C7.15125477,19.4274522 18.7897757,12.6967211 19.0701248,12.5565465 C19.35081,12.416372 19.35081,11.925593 19.0701248,11.7854185 C18.7897757,11.6452439 18.2290775,11.2946395 18.0186476,11.1544649 C17.8082177,11.0142904 17.3876941,10.944035 17.0370897,11.1544649 C16.8969151,11.2243841 6.94116103,16.9735573 6.59055659,17.1839872 C6.16969681,17.3944171 5.67891784,17.3944171 5.3283134,17.1839872 C4.97804512,16.9735573 0,14.0991388 0,14.0991388 L0,16.6932082 C1.26190704,17.4643363 4.48726614,19.2872777 5.2583942,19.7081374 C5.74917318,19.9884865 6.16969681,19.9884865 6.59055659,19.7081374" id="Fill-13" fill="#FFFFFE"></path>
                <path d="M6.59055659,24.8962763 C7.15125477,24.6159272 18.7897757,17.8851961 19.0701248,17.7450215 C19.35081,17.6045108 19.35081,17.1137319 19.0701248,16.9735573 C18.7897757,16.8333828 18.2290775,16.4827783 18.0186476,16.3426038 C17.8082177,16.2024292 17.3876941,16.13251 17.0370897,16.3426038 C16.8969151,16.4128591 6.94116103,22.1620323 6.59055659,22.3721261 C6.16969681,22.5825559 5.67891784,22.5825559 5.3283134,22.3721261 C5.04796431,22.1620323 0.0702553467,19.2872777 0.0702553467,19.2872777 L0.0702553467,21.8813471 C1.33216239,22.6528113 4.55718534,24.4754165 5.3283134,24.8962763 C5.74917318,25.1766254 6.16969681,25.1766254 6.59055659,24.8962763" id="Fill-14" fill="#FFFFFE"></path>
            </g>
        </g>
    </g>
</svg>